<?xml version="1.0" standalone="no"?>
<!DOCTYPE svg PUBLIC "-//W3C//DTD SVG 1.1//EN" "http://www.w3.org/Graphics/SVG/1.1/DTD/svg11.dtd">
<svg xmlns="http://www.w3.org/2000/svg">
<metadata>Copyright (C) 2017 by original authors @ fontello.com</metadata>
<defs>
<font id="fontello" horiz-adv-x="1000" >
<font-face font-family="fontello" font-weight="400" font-stretch="normal" units-per-em="1000" ascent="850" descent="-150" />
<missing-glyph horiz-adv-x="1000" />
<glyph glyph-name="watercolor" unicode="&#xe800;" d="M981 350c12 11 19 26 19 43v332c0 32-26 58-57 58h-886c-31 0-57-26-57-58v-332c0-17 7-32 19-43-12-10-19-26-19-42v-333c0-32 26-58 57-58h886c31 0 57 26 57 58v333c0 16-7 32-19 42z m-951 375c0 16 12 28 27 28h886c15 0 27-12 27-28v-332c0-16-12-28-27-28h-254c0 0 10 9 15 15 2 3 134 127 176 291 0 0 0 0 0 0 4 14-11 27-25 21-56-24-112-61-164-111-6-5-7-15-1-21 5-6 15-6 21 0 43 40 88 72 134 95-24-76-70-152-137-227l-67 57c10 11 19 22 29 33 6 6 5 16-1 21s-15 5-21-1c-21-23-42-49-62-76 0-1-19-24-47-70-29 2-58-8-79-27h-403c-15 0-27 12-27 28v332z m574-288c9 12 18 24 19 25l65-56c-8-8-14-15-22-22-10 8-58 50-62 53z m40-74c-3-3-11-11-24-22-5 9-12 17-20 24 0 0 0 0 0 0-8 7-17 14-31 20 10 15 16 25 18 27l57-49z m326-388h0c0-16-12-28-27-28h-886c-15 0-27 12-27 28v333c0 15 12 27 27 27h380c-17-29-6-46-48-74-14 33-51 52-87 41l0 0c-39-11-62-52-51-91 12-44 63-66 104-45 22-11 46-18 72-19 0 0 0 0 1 0 7 0 14 6 14 13 1 9-5 16-13 16-34 2-65 14-91 36 43 10 83 23 106 62 6 9 9 19 11 28 6 19 8 21 17 33 5 5 9 9 15 13 31 23 73 20 101-13 0 0 0 0 0 0 32-36 19-96-28-125-1 0-32-20-76-29-8-2-14-10-12-18 2-8 10-13 18-11 49 10 84 32 85 33 13 8 23 17 32 27 8-31 37-54 71-54h0c6 0 12 1 18 2 8 2 12 10 11 18-2 8-10 13-18 11-28-7-55 14-55 42 0 25 20 44 44 44h0c30 0 52-29 42-58-3-7 2-16 9-18 8-3 17 1 19 9 24 69-57 124-113 83 0 7-1 15-3 21 8 7 17 15 26 23h285c15 0 27-12 27-27v-333z m-661 222c4-3 8-6 12-10-19 1-36 13-42 32-6 24 7 48 31 55l0 0c21 6 44-5 52-25-8-3-30-8-41-10-19-4-26-28-12-42z m-165 108h0c-41 0-74-33-74-74 0-47 44-82 91-71 8 2 13 10 11 18-2 8-10 13-18 11-28-7-54 14-54 42 0 25 19 44 44 44h0c30 0 51-29 42-58-3-7 1-16 9-18 8-3 16 1 19 9 2 7 3 15 3 23 0 41-33 74-73 74z m0-181h0c-41 0-74-33-74-73 0-48 44-83 91-72 8 2 13 10 11 18-2 8-10 13-18 11-28-7-54 14-54 43 0 24 19 44 44 44h0c30 0 51-30 42-58-3-8 1-17 9-19 8-3 16 1 19 9 2 8 3 16 3 24 0 40-33 73-73 73z m178 0h0c-41 0-74-33-74-73 0-48 44-83 91-72 8 2 13 10 11 18-2 8-10 13-18 11-28-7-54 14-54 43 0 24 19 44 44 44h0c30 0 51-30 42-58-3-8 1-17 9-19 8-3 16 1 19 9 2 8 4 16 4 24 0 40-33 73-74 73z m178 0h0c-41 0-74-33-74-73 0-48 45-83 91-72 8 2 13 10 11 18-2 8-10 13-18 11-27-7-54 14-54 43 0 24 20 44 44 44h0c30 0 51-30 42-58-3-8 1-17 9-19 8-3 16 1 19 9 16 48-20 97-70 97z m178 0h0c-41 0-74-33-74-73 0-48 45-83 92-72 8 2 12 10 11 18-2 8-10 13-18 11-28-7-55 14-55 43 0 24 20 44 44 44h0c30 0 52-30 42-58-3-8 2-17 9-19 8-3 17 1 19 9 16 48-19 97-70 97z m179 181h-1c-40 0-73-33-73-74 0-47 44-82 91-71 8 2 13 10 11 18-2 8-10 13-18 11-28-7-55 14-55 42 0 25 20 44 44 44h1c30 0 51-29 41-58-2-7 2-16 10-18 7-3 16 1 18 9 16 48-19 97-69 97z m0-181h-1c-40 0-73-33-73-73 0-48 44-83 91-72 8 2 13 10 11 18-2 8-10 13-18 11-28-7-55 14-55 43 0 24 20 44 44 44h1c30 0 51-30 41-58-2-8 2-17 10-19 7-3 16 1 18 9 16 48-19 97-69 97z m-543 541c-1 0-2 1-2 2 7 30-14 56-43 56h-67c-25 0-44-20-44-44 0-4 0-5 0-5 0 0 0 0 0 0 0-5-5-9-10-9-24 0-44-20-44-44 0-3 0-5 1-8 0 0 0 0 0 0 0-1 0-2-2-2-24 0-43-20-43-44v-4c0-22 15-40 36-43 8-2 16 4 17 12 2 8-4 15-12 17-7 1-12 7-12 14v4c0 8 7 14 14 14 20 0 35 18 31 38-2 8 5 16 14 16 23 0 41 19 39 41 0 11 7 17 15 17h67c8 0 15-6 15-14v-2c0-3-2-5-2-10 0-18 15-32 32-32 8 0 14-6 14-14 0-8-6-14-14-14h-54c-22 0-39-18-39-39l0-5c0-8-6-14-14-14h-49c-8 0-15-7-15-15s7-15 15-15h49c24 0 44 20 44 44v5c0 5 4 9 9 9h54c24 0 44 20 44 44 0 24-20 44-44 44z m181-80c-1-8 5-15 13-16 7 0 13-6 13-14v-4c0-8-6-14-14-14-19 0-34-18-31-37 2-9-5-17-14-17-22 0-40-19-39-41 1-11-6-17-14-17h-30c-8 0-14 6-14 14v2c0 3 1 5 1 10 0 18-14 32-32 32-8 0-14 6-14 14s6 14 14 14h55c21 0 38 18 38 39 0 2 0 5 0 5 0 8 7 14 14 14h9c8 0 15 7 15 15 0 8-7 15-15 15h-9c-24 0-44-20-44-44l0-5c0-5-3-9-8-9h-55c-24 0-44-20-44-44 0-24 20-44 44-44 1 0 2-1 2-2 0 0-1-4-1-10v-2c0-24 20-44 44-44h30c24 0 45 19 44 49-1 5 4 9 9 9 28 0 48 25 44 52-1 1 0 2 1 2 24 0 44 20 44 44v4c0 41-54 58-56 30z" horiz-adv-x="1000" />

<glyph glyph-name="whatsapp" unicode="&#xe801;" d="M497 850c-271 0-490-220-490-488 0-86 23-168 65-243l-72-259 264 70c77-41 157-64 233-64 267 0 493 227 493 496s-221 488-493 488z m0-951c-72 0-149 23-223 64l-7 3-221-60 61 218-4 6c-41 71-64 151-64 232 0 250 205 455 458 455 254 0 460-205 460-455s-211-463-460-463z m0 869c-225 0-408-182-408-406 0-81 23-156 64-223l6-9-44-155 160 41 9-5c67-41 141-63 213-63 226 0 411 186 411 414 0 224-185 406-411 406z m-2-789c-65 0-133 22-195 60l-20 13-119-30 32 115-13 21c-39 61-59 131-59 204 0 204 169 373 376 373 208 0 378-169 378-373 0-210-170-381-380-383z m248 292l-104 48c-14 6-29 2-39-10l-39-51c-30 12-112 48-159 136l36 43c8 10 10 23 5 34l-45 105c-5 12-14 20-27 20l-32 2c-13 0-27-4-37-14-15-13-43-41-51-78-12-54 6-118 52-181 28-39 113-155 277-201 17-5 33-7 48-7 28 0 54 8 77 22 26 16 44 44 51 73l5 23c3 15-5 30-18 36z m-22-50c-5-22-18-41-36-53-28-18-60-21-96-11-153 42-233 152-259 188-40 54-56 110-46 154 6 30 28 51 41 63 3 3 8 4 13 4l33-3 44-103-40-44c-6-9-8-22-3-32 54-104 153-145 182-155 12-4 23 0 31 10l40 52 103-48-7-22z" horiz-adv-x="1000" />

<glyph glyph-name="youtube-logo" unicode="&#xe802;" d="M657 746v-239c0-21 2-36 5-45 6-15 18-23 36-23 20 0 41 13 63 38v-34h55v303h-55v-231c-12-17-24-26-35-26-7 0-11 4-13 13 0 1 0 8 0 21v223h-56z m-126-307c28 0 50 10 65 31 11 15 17 39 17 72v106c0 32-6 56-17 71-15 21-37 31-65 31-27 0-48-10-64-31-11-15-17-39-17-71v-106c0-33 6-57 17-72 16-21 37-31 64-31z m-26 220c0 28 9 42 26 42 18 0 26-14 26-42v-128c0-28-8-42-26-42-17 0-26 14-26 42v128z m-129-216v165l74 242h-62l-41-160-43 160h-65c12-34 25-72 40-113 19-56 31-99 37-129v-165h60v0z m567-95c-18 16-39 26-62 29-75 8-187 12-337 12-150 0-262-4-336-12-24-3-45-13-63-29-18-16-29-36-35-60-11-47-16-118-16-213 0-96 5-167 16-212 5-24 17-44 35-60 18-16 39-26 62-28 75-9 187-13 337-13 150 0 262 4 337 13 23 2 44 12 62 28 18 16 29 36 35 60 11 47 16 118 16 212 0 97-5 168-16 213-5 24-17 44-35 60z m-592-121h-65v-346h-61v346h-63v57h189v-57h0z m164-346h-54v33c-22-25-43-37-62-37-19 0-30 7-35 22-4 10-5 25-5 45v237h54v-221c0-13 0-20 0-21 2-9 6-13 13-13 11 0 23 9 35 26v229h54v-300h0z m206 90c0-30-2-50-5-61-7-22-21-33-43-33-20 0-39 11-57 33v-29h-54v403h54v-132c18 22 36 33 57 33 21 0 36-12 43-34 3-11 5-31 5-60v-120z m205 50h-108v-53c0-28 9-42 28-42 13 0 21 7 24 22 1 4 1 16 1 37h55v-8c0-20 0-32-1-35-1-11-5-22-13-33-14-21-36-32-65-32-28 0-50 10-66 31-11 15-17 38-17 70v105c0 32 5 56 17 71 15 20 37 31 65 31 27 0 48-11 64-31 11-15 16-39 16-71v-62h0z m-81 115c-18 0-27-14-27-42v-28h54v28c0 28-9 42-27 42z m-201 0c-10 0-19-5-28-14v-183c9-9 18-13 28-13 15 0 23 14 23 41v128c0 27-8 41-23 41z" horiz-adv-x="1000" />

<glyph glyph-name="canvas" unicode="&#xe804;" d="M736 787h-178v8c0 59-81 70-76 37 1-8 9-14 17-12 15 2 29-10 29-25v-8h-50v5c0 8-7 15-15 15s-15-7-15-15v-5h-92c-8 0-14-7-14-15 0-9 6-15 14-15 49 0 337 0 380 0 6 0 10-5 10-10v-33c0-5-4-10-10-10-228 0-336 0-467 0-5 0-10 5-10 10v33c0 5 5 10 10 10h28c8 0 15 6 15 15 0 8-7 15-15 15h-28c-22 0-39-18-39-40v-33c0-22 17-40 39-40h12v-116c0-8 6-15 15-15 8 0 15 7 15 15v116h384v-36c0-9 7-15 15-15 8 0 15 6 15 15v36h11c22 0 40 18 40 40v33c0 22-18 40-40 40z m0-508h-11v299c0 8-7 15-15 15-8 0-15-7-15-15v-299h-384v220c0 8-7 15-15 15-9 0-15-7-15-15v-220h-12c-22 0-39-18-39-40v-33c0-22 17-39 39-39h150l-116-246c-12-25-2-55 24-67 6-4 14-5 21-5 20 0 38 11 46 28l58 123v-105c0-28 23-51 51-51 28 0 50 23 50 51v105l59-123c8-17 26-28 45-28 8 0 15 1 22 5 25 12 36 42 24 67l-117 246h63c8 0 15 6 15 14 0 9-7 15-15 15-76 0-300 0-380 0-5 0-10 5-10 10v33c0 6 5 10 10 10h467c6 0 10-4 10-10v-33c0-5-4-10-10-10h-27c-9 0-15-6-15-15 0-8 6-14 15-14h27c22 0 40 17 40 39v33c0 22-18 40-40 40z m-205-113c0 0 0 0 0 0 0 0 0 0 0 0 0 0 0 0 0 0 0 0 0 0 0 0 0 1 0 1 0 1h22l0 0 123-259c5-10 0-23-10-28-3-1-6-2-9-2-8 0-15 5-19 12l-85 179c0 1-32 69-34 72 9 19 11 24 12 25z m-7-103v-168c0-12-10-21-21-21-12 0-21 9-21 21v168l21 44 21-44z m-72 104h46c-21-46-93-197-131-277-3-7-11-12-19-12-3 0-6 1-9 2-10 5-14 18-9 28l122 259 0 0z" horiz-adv-x="1000" />

<glyph glyph-name="colored-pencils" unicode="&#xe805;" d="M926 478c0 0 0 1 0 1 0 15-10 27-23 33v168c0 13-3 27-9 38 0 0-63 119-64 120-9 15-32 15-40-2l-27-50-30-57c-1 0-58 108-58 109-10 16-33 14-41-2l-27-50-30-57c-7 13-58 108-58 109-8 13-27 15-37 4-3-4-1-1-30-56-1 0-1 0-1 0l-30-57-30 58c-28 53-27 51-30 55-10 12-30 10-38-4-1 0 4 7-58-108l-30 57-27 50c-9 18-33 17-41 0l-63-118c-6-11-9-25-9-38v-170c-13-7-21-20-21-34v-91c0-8 6-15 15-15s15 7 15 15v91c0 4 3 8 8 8h776c5 0 8-4 8-8l0-245h-242c-8 0-15-7-15-15 0-8 7-15 15-15h242v-78h-455c-8 0-15-7-15-15 0-9 7-15 15-15h455v-61c0 0 0 0 0 0v-102c0-28-24-51-55-51h-682c-31 0-55 23-55 51v163h277c9 0 15 6 15 15 0 8-6 15-15 15h-277v78h490c8 0 15 7 15 15 0 8-7 15-15 15h-490v94c0 8-7 15-15 15s-15-7-15-15c0-93 0-307 0-395 0-45 38-81 85-81h682c47 0 85 36 85 81 0 6 0 536 0 547z m-738 335l14-27c-9-4-20-4-29 0l15 27z m-29-54c9-4 19-6 29-6 9 0 19 2 28 6l25-48h-107l25 48z m14-244h-48v166h48v-166z m77 0h-47v166h47v-166z m93 298l15-27c-9-4-20-4-29 0l14 27z m-28-54c9-4 18-6 28-6 10 0 20 2 29 6l25-48h-107l25 48z m13-244h-47v166h47v-166z m78 165v-165h-48v166h48c0 0 0 0 0-1z m93 132l14-28c-9-3-19-3-28 1l14 27z m-29-54c9-4 19-6 29-6 10 0 19 2 28 6l26-48h-108l25 48z m14-243h-48v165h48v-165z m78 0h-48v165h48v-165z m93 297l14-28c-9-3-20-3-29 1l15 27z m-29-54c9-4 19-6 29-6s19 2 28 6l25-48h-107l25 48z m14-243h-48v165h48v-165z m78 0h-48v165h48v-165z m92 297l15-28c-9-3-20-3-29 1l14 27z m-28-54c9-4 19-6 28-6 10 0 20 2 29 6l25-48h-107l25 48z m13-243h-47v165h47v-165z m78 0h-47v165h47v-165z" horiz-adv-x="1000" />

<glyph glyph-name="cupcake" unicode="&#xe806;" d="M789 229c0 47-33 87-77 97 5 11 7 23 7 35 0 55-45 99-99 99h-107v134c0 18-16 34-34 34h-5v44c0 8-7 14-15 14s-15-6-15-14v-44h-4c-19 0-35-16-35-34v-134h-107c-54 0-99-44-99-99 0-12 2-24 7-35-44-10-77-50-77-97 0-28 21-52 48-58l56-228c2-6 8-11 14-11h424c7 0 12 5 14 11l56 228c27 6 48 30 48 58z m-354 365c0 2 2 4 5 4h39c2 0 4-2 4-4v-134h-48v134z m224-633h-400l-52 209h77l25-167c1-7 7-12 14-12 1 0 2 0 2 0 8 1 14 8 13 16l-24 163h77l8-165c1-8 7-14 15-14 0 0 0 0 1 0 8 0 14 7 13 15l-8 164h78l-8-164c-1-8 5-15 14-15 0 0 0 0 0 0 8 0 15 6 15 14l8 165h77l-24-163c-1-8 5-15 13-16 0 0 1 0 2 0 7 0 13 5 14 12l25 167h77l-52-209z m70 238h-540c-17 0-30 14-30 30 0 39 31 70 70 70 5 0 10 3 12 8 3 5 3 11 0 15-8 12-12 25-12 39 0 39 31 70 69 70h322c38 0 70-31 70-70 0-11-3-22-9-33h-394c-8 0-15-6-15-14s7-15 15-15h403c38 0 69-31 69-70 0-16-13-30-30-30z m-329 464c4 0 7 2 10 4 6 6 7 15 1 21-10 12-16 27-16 42 0 35 26 70 64 89 38-19 64-54 64-89 0-15-6-30-16-42-6-6-5-15 1-21 6-5 15-5 21 1 15 17 23 39 23 62 0 48-36 96-87 119-4 1-8 1-12 0-51-23-87-71-87-119 0-23 8-45 24-62 2-3 6-5 10-5z" horiz-adv-x="1000" />

<glyph glyph-name="cutlery" unicode="&#xe807;" d="M639 536c-6-5-7-14-2-21 27-36 42-79 42-124 0-113-92-205-205-205-113 0-205 92-205 205s92 205 205 205c45 0 88-14 124-42 6-5 16-4 21 3 5 6 3 15-3 20-41 32-90 48-142 48-130 0-235-105-235-234s105-234 235-234c129 0 234 105 234 234 0 52-17 101-48 142-5 7-14 8-21 3z m-165 168c-173 0-313-141-313-313s140-312 313-312c172 0 312 140 312 312s-140 313-312 313z m0-596c-156 0-284 127-284 283s128 283 284 283 283-127 283-283-127-283-283-283z m-342 596c-8 0-15-7-15-15v-122h-29v122c0 8-7 15-15 15s-14-7-14-15v-122h-30v122c0 8-6 15-14 15s-15-7-15-15v-176c0-35 25-65 59-72v-348c0-8 6-14 14-14s15 6 15 14v348c33 7 59 37 59 72v176c0 8-7 15-15 15z m-59-235c-24 0-44 20-44 44v25h88v-25c0-24-19-44-44-44z m830 235c-40 0-73-33-73-74v-268c0-8 7-15 15-15h44v-254c0-8 6-14 14-14s15 6 15 14v596c0 8-7 15-15 15z m-14-328h-30v254c0 19 13 36 30 42v-296z" horiz-adv-x="1000" />

<glyph glyph-name="flags" unicode="&#xe808;" d="M10 822c21-8 42-15 64-21l51-226c1-6 6-10 11-12 1 0 2 0 3 0 5 0 9 2 12 6l139 186c18-2 36-4 54-6v-205c0-5 3-11 8-13 5-2 11-2 15 2l92 71 92-71c3-2 6-3 9-3 2 0 4 0 6 1 5 2 9 8 9 13v205c17 2 35 4 53 6l139-186c3-4 7-6 12-6 1 0 2 0 3 0 5 2 10 6 11 12l20 88c2 8-3 16-11 18-8 2-16-3-17-11l-14-58-110 147c51 8 101 19 151 32l-15-64c-1-8 4-16 12-18 1 0 2 0 3 0 6 0 13 5 14 11l18 81c22 6 43 13 64 21 8 2 12 11 9 18-3 8-11 12-19 9-22-8-45-15-67-22-2 0-4-1-6-1-62-19-126-32-191-41-1 0-2 0-3 0-24-3-48-6-73-8-33-2-66-3-99-3s-66 1-99 3c-25 2-49 5-73 8-1 0-2 0-3 0-65 9-129 22-191 41-2 0-4 1-5 1-23 7-46 14-68 22-8 3-16-1-19-9s1-16 9-18z m137-210l-41 179c50-13 100-24 151-32l-110-147z m398 135v-173l-77 60c-5 4-13 4-18 0l-77-60v173c28-2 57-3 86-3s58 1 86 3z m353-197c-22-8-45-15-67-22-1 0-2 0-2 0-1 0-3-1-4-1-62-18-126-32-191-41-1 0-2 0-2 0-1 0-1 0-1 0-24-3-48-6-72-7 0 0 0 0 0 0-33-3-67-4-100-4-33 0-67 1-100 4 0 0 0 0 0 0-24 1-48 4-72 7 0 0 0 0 0 0-1 0-2 0-3 0-65 9-129 23-191 41-1 0-2 1-4 1 0 0-1 0-1 0-23 7-46 14-68 22-8 3-16-1-19-8-3-8 1-16 9-19 19-7 39-14 59-20l-43-200c-1-5 1-11 6-15 4-3 10-4 15-1l105 50 75-88c3-4 7-6 11-6 1 0 2 1 4 1 5 1 9 6 10 11l43 200c18-2 36-3 53-5l98-211c2-5 7-8 13-8s11 3 13 8l98 211c17 2 35 3 53 5l43-200c1-5 5-10 10-11 2 0 3-1 4-1 4 0 8 2 11 6l75 88 105-50c5-3 11-2 15 1s7 10 6 15l-43 200c20 6 40 13 59 20 8 3 12 11 9 19-3 7-11 11-19 8z m-668-260l-63 75c-4 5-12 7-18 4l-88-43 36 169c56-15 112-27 169-36l-36-169z m229-10l-77 168c25-2 51-2 77-2s52 0 77 2l-77-168z m398 46l-88 43c-6 3-13 1-18-4l-63-75-36 169c57 9 113 21 169 36l36-169z m41-74c-22-8-45-16-67-22-2-1-4-1-6-2-62-18-126-32-191-40-1 0-2 0-3-1-24-3-48-5-73-7-33-3-66-4-99-4s-66 1-99 4c-25 2-49 4-73 7-1 1-2 1-3 1-65 8-129 22-191 40-2 1-4 1-5 2-23 6-46 14-68 22-8 2-16-2-19-9-3-8 1-16 9-19 21-7 42-14 64-21l51-226c1-6 6-10 11-11 1 0 2 0 3 0 5 0 9 2 12 5l139 186c18-2 36-4 54-5v-67c0-8 6-14 14-14s15 6 15 14v65c28-2 57-3 86-3s58 1 86 3v-174l-77 60c-5 5-13 5-18 0l-77-60v51c0 8-7 14-15 14s-14-6-14-14v-80c0-6 3-11 8-14 5-2 11-1 15 2l92 71 92-71c3-2 6-3 9-3 2 0 4 0 6 1 5 3 9 8 9 14v205c17 1 35 3 53 5l139-186c3-3 7-5 12-5 1 0 2 0 3 0 5 1 10 5 11 11l51 226c22 7 43 14 64 21 8 3 12 11 9 19-3 7-11 11-19 9z m-751-237l-41 179c50-14 100-24 151-32l-110-147z m624 0l-110 147c51 8 101 18 151 32l-41-179z" horiz-adv-x="1000" />

<glyph glyph-name="hand" unicode="&#xe809;" d="M852 459c0 0 0 0 0 0 0 0 0 0 0 0z m0 0c0 0 0 0 0 0l0 0z m136 128c-6 6-9 6-51 28 0 0 0 0 0 0l-27 15c-8 4-17 1-20-6-4-8-2-17 6-21l12-6c-12-23-12-51 0-74l-70-38c-6-3-12-5-18-6h0v162h0c12-3 20-8 23-10 8-4 16-1 20 6 4 8 1 17-6 21l-5 2c-14 8-30 12-46 12h-63v49c0 29-16 57-47 70 0 0 0 0-1 0-11 4-28 7-40 3 0 0 0 0 0 0-1 31-27 56-59 56h-1c-17 0-33-7-43-19-11 12-27 19-44 19h-1c-17 0-33-7-43-19-11 12-27 19-44 19h-1c-17 0-33-8-44-20-10 12-26 20-43 20h-1c-33 0-59-26-59-58v-120h-160c-39 0-75-20-95-54-5-7-2-16 5-21 7-4 16-2 20 5 12 20 31 34 53 38v-160c-35 8-62 38-65 74 0 9-7 15-16 14-8 0-14-7-13-16 3-56 50-101 107-104 0 0 2 0 3 0 0 0 0 0 0 0 3 0-10 0 172 0 4-9 7-16 12-24-16-12-27-32-27-54v-50c0-36 30-67 66-68v-220c0-8 7-15 15-15s15 7 15 15v220h107c8 0 15 7 15 15 0 8-7 15-15 15-44 0-89 0-134 0-1 0-2 0-3 0-20 1-36 18-36 38v50c0 12 6 23 15 30 6 5 15 9 24 9h10 71 30c58 0 184 0 230 0 6 0 10-1 15-3 0-1 1-1 1-1 14-6 23-19 23-35v-50c0-21-17-38-39-38-45 0-105 0-148 0-8 0-14-7-14-15 0-8 6-15 14-15h106v-42c0-8 7-15 15-15s15 7 15 15v42h12c38 0 69 31 69 68v50c0 25-14 47-34 59 0 0 0 0 0 0l1 3c3 5 6 10 9 16h83c16 0 32 4 46 11 0 0 0 0 0 0 0 0 0 0 0 0h0c0 0 0 0 0 0 0 0 0 0 0 0 0 0 0 0 0 0 0 0 0 0 0 0 0 0 0 0 0 0 0 0 0 0 0 0 0 0 0 0 0 0 0 0 0 0 0 0 0 0 0 0 0 0 0 0 0 0 0 0 3 2 22 12 128 68 22 12 26 42 8 60z m-421 85v120c0 16 12 28 28 28h1c16 0 29-12 29-28 0 0 0-142 0-143-20-4-26-7-27-7-11-3-20-6-26-9-9 12-4 24-5 39z m-89 0v120c0 16 13 28 29 28h1c16 0 29-12 29-28v-120c0-21 0-24-1-30-4-12-15-20-28-20 0 0-22-1-28 20-2 6-1 9-2 30z m-88 120c0 16 13 28 29 28h1c16 0 29-12 29-28 0-6 0-136 0-142 0-37-59-38-59 0 0 32 0 113 0 142z m-88-120v120c0 16 13 28 29 28h1c16 0 28-12 28-28v-120c0-23 1-25-1-30-3-12-14-20-27-20 0 0-22-1-29 20 0 0 0 0 0 0-2 7 0 13-1 30z m-90-30c24 0 39 0 61 0 7-49 69-67 102-30 24-26 65-27 89 0 10-12 25-20 42-20-7-5-14-12-21-20-27 0-253 0-273 0v70z m-30-165h-57v165h57v-165z m239-39h-84c-5 0-10 0-15-1-2 3-4 7-6 11 2 0 105 0 106 0 0-4-1-6-1-10z m24 77c0 0 0 0 0 0-6-11-11-24-11-25-1-4-3-8-4-13-1 0-14 0-14 0-65 0-141 0-204 0v66c20 0 235-1 249-1-3-5-10-16-16-27z m259-34c-5-16-13-30-23-43-1 0-2 0-3 0h-227c8 51 38 102 74 131 0 0 0 0 0 0 21 19 53 37 86 46 0 0 0 0 0 0 28 8 32 4 39 10 0 0 0 0 0 0 2 2 3 4 4 5 0 0 0 1 0 1 1 4 0 8 1 11 0 20 0 82 0 110 0 3 1 6 2 8 5 8 16 7 25 4 0 0 0 0 0 0 14-4 25-16 29-29 0 0 0 0 0 0 3-11 2-21 2-34-1-173 4-185-9-220z m86-4h-55c10 34 7 59 8 65h47v-65z m0 95h-47v70h47v-70z m176-19l-32-16c-7 14-7 31 0 46l32-17c5-2 5-10 0-13z m-114-94c0 0 0 0 0 0 0 0 0 0 0 0z m-201-294c-8 0-15-6-15-15v-248c0-12-10-22-22-22h-227c-13 0-23 10-23 22v71c0 8-7 15-15 15s-15-7-15-15v-71c0-29 24-52 53-52h227c29 0 52 23 52 52v248c0 9-6 15-15 15z" horiz-adv-x="1000" />

<glyph glyph-name="money" unicode="&#xe80a;" d="M968 700h-936c-17 0-32-15-32-33v-634c0-18 15-33 32-33h936c18 0 32 15 32 33v634c0 18-14 33-32 33z m1-535h-51c-9 0-16-7-16-15s7-16 16-16h51v-36h-252c-8 0-15-7-15-15 0-9 7-16 15-16h252v-34c0-1-1-1-1-1h-936c0 0-1 0-1 1v34h619c9 0 16 7 16 16 0 8-7 15-16 15h-619v36h820c8 0 15 7 15 16s-7 15-15 15h-820v36c1 0 1 0 1 0h936c0 0 0 0 1 0v-36z m0 68c0 0-1-1-1-1h-936c0 0-1 1-1 1v434c0 1 1 1 1 1h936c0 0 1 0 1-1v-434z m-51 333c-29 0-52 23-52 51 0 9-7 16-15 16h-184c-9 0-16-7-16-16s7-15 16-15h170c6-33 32-59 65-66v-172c-33-6-59-32-65-65h-170c-9 0-16-7-16-16s7-15 16-15h184c8 0 15 7 15 15 0 28 23 51 52 51 8 0 15 7 15 16v200c0 9-7 16-15 16z m-585-267h-170c-6 33-32 59-65 65v172c33 7 59 33 65 66h170c9 0 16 7 16 15s-7 16-16 16h-184c-8 0-15-7-15-16 0-28-23-51-51-51-9 0-16-7-16-16v-200c0-9 7-16 16-16 28 0 51-23 51-51 0-8 7-15 15-15h184c9 0 16 7 16 15s-7 16-16 16z m167 334c-101 0-183-82-183-183s82-182 183-182 183 82 183 182-82 183-183 183z m0-334c-83 0-151 68-151 151s68 152 151 152 151-68 151-152-67-151-151-151z m16 163v55c22-4 35-14 35-20 0-8 7-15 16-15s16 7 16 15c0 27-28 47-67 52v1c0 9-7 16-16 16s-16-7-16-16v-1c-39-5-66-25-66-52 0-36 36-50 66-59v-54c-22 3-35 13-35 19 0 9-7 16-16 16s-15-7-15-16c0-26 27-47 66-51v-2c0-9 7-16 16-16s16 7 16 16v2c39 4 67 25 67 51 0 37-37 51-67 59z m-32 9c-26 8-35 16-35 26 0 6 13 16 35 20v-46z m32-87v46c26-9 35-16 35-27 0-6-13-16-35-19z" horiz-adv-x="1000" />

<glyph glyph-name="online-payment" unicode="&#xe80c;" d="M947 752h-143c-9 0-16-8-16-17 0-9 7-17 16-17h143c11 0 19-8 19-19v-644c0-11-8-19-19-19h-894c-11 0-19 8-19 19v644c0 11 8 19 19 19h143c9 0 17 8 17 17 0 9-8 17-17 17h-143c-29 0-53-24-53-53v-644c0-29 24-53 53-53h339l-14-110h-57c-9 0-17-7-17-16 0-10 8-17 17-17h358c9 0 17 7 17 17 0 9-8 16-17 16h-57l-13 110h338c29 0 53 24 53 53v644c0 29-24 53-53 53z m-535-860l13 110h150l13-110h-176z m-216 788h-108c-9 0-16-7-16-17v-555c0-9 7-16 16-16h90c9 0 17 7 17 16 0 10-8 17-17 17h-73v521h91c9 0 17 8 17 17 0 10-8 17-17 17z m716 0h-108c-9 0-16-7-16-17 0-9 7-17 16-17h91v-521h-646c-9 0-16-7-16-17 0-9 7-16 16-16h663c9 0 16 7 16 16v555c0 10-7 17-16 17z m-143-322h-20v448c0 20-15 35-34 35h-430c-19 0-34-15-34-35v-448h-19c-29 0-53-24-53-53v-71c0-29 24-53 53-53h537c28 0 52 24 52 53v71c0 29-24 53-52 53z m-485-17c0 0 0 0 0 0 0 0 0 0 0 0v465c0 1 1 2 1 2h430c0 0 1-1 1-2v-520h-56c0 1 0 1 0 1 0 22-10 41-25 54 15 13 25 32 25 54 0 39-32 70-70 70-39 0-71-31-71-70 0-22 10-41 25-54-15-13-25-32-25-54 0 0 0 0 0-1h-145v449c0 9-8 17-17 17-9 0-17-8-17-17v-449h-56v55z m306 17c-21 0-37 16-37 37s16 37 37 37c20 0 36-17 36-37 0-21-16-37-36-37z m36-71c0 0 0 0 0-1h-73c0 1 0 1 0 1 0 21 16 37 37 37 20 0 36-16 36-37z m162-53c0-11-9-19-19-19h-537c-11 0-19 8-19 19v71c0 11 8 19 19 19h19v-54c0-10 7-17 16-17h466c9 0 16 7 16 17v54h20c10 0 19-8 19-19v-71z m-360 518c-9 0-16-8-16-17v-90c0-9 7-16 16-16 10 0 17 7 17 16v90c0 9-7 17-17 17z m0-161c-9 0-16-8-16-17v-90c0-9 7-17 16-17 10 0 17 8 17 17v90c0 9-7 17-17 17z m0-162c-9 0-16-7-16-16v-72c0-9 7-17 16-17 10 0 17 8 17 17v72c0 9-7 16-17 16z m197 323h-71c-19 0-35-16-35-35v-107c0-20 16-35 35-35h71c19 0 35 15 35 35v107c0 19-16 35-35 35z m1-142c0-1 0-2-1-2h-71c-1 0-1 1-1 2v36h73v-36z m0 70h-73v37c0 1 0 1 1 1h71c1 0 1 0 1-1v-37z" horiz-adv-x="1000" />

<glyph glyph-name="online-shopping" unicode="&#xe80d;" d="M947 778h-894c-29 0-53-23-53-52v-752c0-29 24-52 53-52h894c29 0 53 23 53 52v752c0 29-24 52-53 52z m-699-33h647v-38h-647v38z m-71 0h38v-38h-38v38z m-72 0h38v-38h-38v38z m-71-19c0 10 8 19 19 19h19v-38h-38v19z m932-752c0-10-8-19-19-19h-894c-11 0-19 9-19 19v699h932v-699z m0 733h-38v38h19c11 0 19-9 19-19v-19z m-54-72h-824c-9 0-16-7-16-16 0-10 7-17 16-17h824c9 0 16 7 16 17 0 9-7 16-16 16z m-478-460c2 0 4 1 7 1l227 28c26 3 46 26 46 52v148c0 9-8 17-17 17h-107c-10 0-17-8-17-17s7-17 17-17h90v-131c0-9-7-17-17-18l-226-29c-9-1-18 4-21 12l-62 166h92c10 0 17 7 17 17s-7 17-17 17h-104l-14 37c-8 20-28 34-50 34h-29c-9 0-16-7-16-17 0-9 7-16 16-16h29c8 0 15-5 18-13l89-236c2-6 5-11 9-16l-26-43c-4 1-7 1-11 1-29 0-53-24-53-53s24-52 53-52c23 0 43 15 50 36h204c7-21 27-36 50-36 29 0 53 24 53 52s-24 53-53 53c-23 0-43-15-50-36h-204c-2 7-6 13-10 18l26 43c3-1 7-2 11-2z m-77-95c-11 0-19 9-19 19 0 11 8 20 19 20 10 0 19-9 19-20 0-10-9-19-19-19z m304 39c11 0 19-9 19-20 0-10-8-19-19-19-10 0-19 9-19 19 0 11 9 20 19 20z m-77 225c-7 7-18 7-24 0l-25-25v192c0 9-8 17-17 17-9 0-17-8-17-17v-192l-25 25c-6 7-17 7-24 0-6-7-6-17 0-24l54-53c3-4 8-5 12-5 4 0 9 1 12 5l54 53c6 7 6 17 0 24z" horiz-adv-x="1000" />

<glyph glyph-name="palette" unicode="&#xe80e;" d="M573 95c-6-6-6-15 0-21 5-6 15-6 21 0 16 17 43 20 64 6 23-16 29-47 13-71-26-39-87-24-92 23-1 8-9 14-17 13-8-1-14-8-13-16 9-74 105-99 147-37 9 14 14 29 14 46 0 71-87 107-137 57z m-18 453c-159 139-439 86-529-134-4-10 3-20 13-20 6 0 12 3 14 9 76 184 302 247 462 138 7-4 14-10 20-15 7-6 16-5 21 1 6 7 5 16-1 21z m-199-626c-108 43-189 104-190 104 0 0 0 0 0 1-105 71-156 198-130 322 2 8-3 16-11 17s-16-3-18-11c-28-135 27-275 142-353 6-5 87-64 196-107 1-1 3-1 5-1 6 0 12 3 14 9 3 8-1 16-8 19z m104 546c-1 26-23 46-49 44l-113-6c-32-1-53-33-42-63-24-3-43-24-41-49 1-25 22-44 47-44 2 0 1 0 37 2 8 0 14 7 14 15 0 8-7 15-16 14l-34-2c-10 0-19 8-19 18 0 9 8 17 18 17l11 1c17 1 25 21 14 33-10 11-2 28 12 29l113 6c10 0 19-8 19-18 0-9-8-16-17-17l-10 0c-18-1-26-21-16-35 9-11 2-27-13-28l-18-1c-8 0-15-7-14-15 0-8 7-15 15-14l19 1c31 1 53 32 42 63 24 3 43 24 41 49z m28-182c-21 0-26-9-122-62-28-15-32-53-9-75-18-12-26-36-18-56 10-28 42-38 67-24l25 14c7 4 9 13 5 20-4 7-13 10-20 6l-25-14c-9-5-21-1-25 9-2 7 2 17 9 21l0 1c17 9 18 32 3 44-9 7-8 22 2 28 105 58 100 58 108 58 9 0 17-7 17-17 0-14-15-17-20-22-15-8-13-29 2-35 15-5 16-24 2-32l-21-12c-7-4-10-13-6-20 4-7 13-10 21-6l21 12c27 16 33 54 10 76 38 25 21 86-26 86z m-239 22c-11 29-48 40-73 20-9 19-32 31-52 26-22-5-37-24-37-46 0-14 5-20 17-52 3-8 11-12 19-9 8 3 11 12 8 19-13 36-14 36-14 42 0 10 7 17 16 17 7 0 15-5 17-11 3-5 5-24 23-24 7 0 14 4 17 10 8 12 26 11 32-3 42-110 42-106 42-112 0-19-27-24-34-6l-5 13c-6 15-27 16-35 2-7-13-26-12-32 3l-5 14c-3 8-12 11-19 9-8-3-12-12-9-20l6-14c11-29 48-41 73-21 10-21 36-33 59-23 18 6 30 24 30 43 0 16-3 16-44 123z m750 519c4 15-11 27-25 22 0 0 0-1 0-1-56-24-111-61-164-110-6-6-6-15-1-21 6-6 15-7 21-1 43 41 88 73 134 95-32-103-102-196-179-271-12 4-24-7-20-19-9-9-17-16-25-23-12 19-32 35-51 43 5 9 11 18 18 28 16-13 18-20 27-20 14 0 20 18 10 27l-20 17c4 6 3 5 5 7 0 1 12 17 13 18l36-31c7-6 16-5 21 1 6 7 5 16-1 21l-37 32c9 12 19 23 28 33 6 6 5 16-1 21-6 6-15 5-21-1-20-23-41-48-62-76 0 0-20-26-47-69-43 3-84-22-103-60-8-15-10-31-17-43-6-11-16-21-29-28-15-9-29-13-45-17-5-2-14-4-23-6-19-3-27-28-12-41 10-10 22-18 34-25 7-5 16-2 20 5 4 7 2 16-5 20-7 4-14 9-21 14 44 11 83 24 107 63 9 16 11 33 17 45 21 40 77 62 121 21 38-36 27-100-23-130-41-25-100-41-151-32-8 2-16-4-17-12-2-8 4-15 12-17 27-5 56-4 83 1 5-83 60-149 134-182 34-15 56-49 56-86 0-31-16-52-16-53-94-115-229-126-370-83-7 2-16-2-18-10s2-16 10-19c155-47 300-31 401 94 1 1 2 2 2 2 43 64 17 152-53 183-65 28-115 87-117 162 35 11 58 26 60 27 47 29 68 81 57 127 107 92 212 218 247 358z" horiz-adv-x="1000" />

<glyph glyph-name="payment" unicode="&#xe80f;" d="M817 716h-768c-27 0-49-22-49-49v-501c0-27 22-49 49-49h484c9 0 16 7 16 16 0 9-7 16-16 16h-484c-10 0-18 8-18 17v501c0 10 8 18 18 18h768c10 0 18-8 18-18v-217c0-8 7-15 16-15 8 0 15 7 15 15v217c0 27-22 49-49 49z m-33-300c-119 0-216-97-216-216s97-216 216-216 216 97 216 216-97 216-216 216z m0-401c-102 0-185 83-185 185s83 184 185 184 185-82 185-184-83-185-185-185z m-518 585h-133c-18 0-33-15-33-33v-100c0-18 15-32 33-32h133c18 0 33 14 33 32v100c0 18-15 33-33 33z m-99-134h-34c-1 0-1 0-1 1v100c0 1 0 1 1 1h34v-102z m100 1c0-1 0-1-1-1h-68v35h18c9 0 16 7 16 16s-7 16-16 16h-18v35h68c1 0 1 0 1-1v-100z m408 149c-18 0-35-5-50-15-14 10-32 15-50 15-50 0-91-41-91-91s41-90 91-90c19 0 36 5 50 15 15-10 33-15 50-15 50 0 91 40 91 90s-41 91-91 91z m-73-144c-8-4-17-6-27-6-33 0-59 27-59 59s26 60 59 60c10 0 19-2 27-6-11-15-17-34-17-54 0-19 6-37 17-53z m73-6c-9 0-18 2-26 6 11 15 17 34 17 53 0 9-7 16-16 16s-15-7-15-16c0-11-4-22-10-32-6 10-9 21-9 32 0 33 27 60 59 60s60-27 60-60-27-59-60-59z m-425-117h-134c-9 0-16-7-16-16s7-15 16-15h134c8 0 15 7 15 15s-7 16-15 16z m267-100h-401c-9 0-16-7-16-16s7-16 16-16h401c8 0 15 7 15 16s-7 16-15 16z m-67 100h-134c-8 0-15-7-15-16s7-15 15-15h134c9 0 16 7 16 15s-7 16-16 16z m100 0h-33c-9 0-16-7-16-16s7-15 16-15h33c9 0 16 7 16 15s-7 16-16 16z m362-71c-6 6-16 6-22 0l-139-140-73 73c-6 6-16 6-22 0-6-6-6-16 0-22l84-84c3-3 7-4 11-4s8 1 11 4l150 150c6 7 6 16 0 23z" horiz-adv-x="1000" />

<glyph glyph-name="play-button" unicode="&#xe811;" d="M500 850c-276 0-500-224-500-500s224-500 500-500 500 224 500 500-224 500-500 500z m173-526l-250-157c-5-3-11-4-17-4-5 0-10 1-15 3-10 6-16 16-16 28v312c0 12 6 22 16 28 10 5 22 5 32-1l250-156c9-6 15-16 15-27s-6-21-15-26z" horiz-adv-x="1000" />

<glyph glyph-name="premium" unicode="&#xe812;" d="M888-49l-151 263 49 24c4 2 7 5 8 10l17 76 49 61c3 4 4 8 3 13l-17 76 17 76c1 5 0 9-3 13l-49 61-17 76c-1 5-4 8-8 10l-70 34-49 61c-3 4-7 6-12 6h-78l-71 34c-4 2-8 2-12 0l-71-34h-78c-5 0-9-2-12-6l-48-61-71-34c-4-2-7-5-8-10l-17-76-49-61c-3-4-4-8-3-13l17-76-17-76c-1-5 0-9 3-13l49-61 17-76c1-5 4-8 8-10l49-24-151-263c-7-11 4-24 16-21l93 25 25-93c3-12 20-15 27-4l158 275 63-30c4-2 8-2 12 0l63 30 158-275c7-11 24-8 27 4l25 93 93-25c12-3 23 10 16 21z m-623-47l-20 72c-2 8-10 13-18 11l-72-20 133 232 45-56c3-4 7-6 12-6h55l-135-233z m302 261l-67-32-67 32c-2 1-4 1-7 1h-74l-47 59c-1 1-3 3-5 4l-67 32-16 73c-1 2-2 4-3 6l-47 58 17 73c0 2 0 4 0 6l-17 73 47 58c1 2 2 4 3 6l16 73 67 32c2 1 4 3 5 4l47 59h74c3 0 5 0 7 1l67 32 67-32c2-1 4-1 7-1h74l47-59c1-1 3-3 5-4l67-32 17-73c0-2 1-4 2-6l47-58-17-73c0-2 0-4 0-6l17-73-47-58c-1-2-2-4-2-6l-17-73-67-32c-2-1-4-3-5-4l-47-59h-74c-3 0-5 0-7-1z m206-178c-8 2-16-3-18-11l-20-72-134 233h54c5 0 9 2 12 6l45 56 133-232-72 20z m-78 689c-6 6-15 5-21 0-5-6-5-15 1-21 49-48 77-112 77-181 0-139-113-251-252-251s-251 112-251 251 112 251 251 251c41 0 82-10 118-29 8-4 17-1 20 6 4 7 1 16-6 20-40 21-86 33-132 33-155 0-281-126-281-281s126-281 281-281 281 126 281 281c0 77-31 149-86 202z m5-115l-47 63c-3 3-7 6-12 6h-282c-4 0-9-3-12-6l-47-63c-1-2-2-6-2-9v-62c0-4 1-7 3-10l188-219c6-7 16-7 22 0l188 219c2 3 4 6 4 10v62c0 3-1 7-3 9z m-66 39l25-33h-58l-25 33h58z m-55-62v-34h-158v34h158z m-119 62h80l25-33h-130l25 33z m-94 0h58l-25-33h-57l24 33z m-39-62h64v-34h-64v34z m17-63h52l53-122-105 122z m156-167l-72 167h144l-72-167z m51 45l53 122h52l-105-122z m122 151h-64v34h64v-34z m-533-188c-23 0-48 39-48 95 0 8-7 15-15 15-8 0-14-7-14-15 0-56-26-95-48-95-8 0-15-6-15-14 0-8 7-15 15-15 22 0 48-39 48-95 0-8 6-14 14-14 8 0 15 6 15 14 0 56 25 95 48 95 8 0 15 7 15 15 0 8-7 14-15 14z m-63-50c-6 15-15 27-25 36 10 9 19 21 25 36 7-15 16-27 26-36-10-9-19-21-26-36z m908-169c-17 0-32 22-32 48 0 8-6 15-15 15s-14-7-14-15c0-26-15-48-33-48-8 0-14-6-14-14 0-8 6-15 14-15 18 0 33-22 33-48 0-8 6-15 14-15s15 7 15 15c0 26 15 48 32 48 8 0 15 7 15 15 0 8-7 14-15 14z m-47-27c-3 5-6 9-10 13 4 3 7 8 10 12 4-4 7-9 11-12-4-4-7-8-11-13z m-47 716c-17 0-32 22-32 48 0 8-6 15-15 15s-14-7-14-15c0-26-15-48-32-48-9 0-15-6-15-15 0-8 6-14 15-14 17 0 32-22 32-48 0-8 6-15 14-15s15 7 15 15c0 26 15 48 32 48 9 0 15 6 15 14 0 9-6 15-15 15z m-47-27c-3 5-6 9-10 12 4 4 7 8 10 13 4-5 7-9 11-13-4-3-7-7-11-12z" horiz-adv-x="1000" />

<glyph glyph-name="puzzle" unicode="&#xe813;" d="M933 76c-8 0-16 2-24 4-8 3-16-1-19-9-2-8 2-16 10-19 6-2 12-3 18-4v-65c-77-2-81 3-89-5-3-3-4-7-4-11 1-23-8-45-23-61-9-10-2-25 11-25 4 0 8 1 10 4 18 19 29 43 31 68h79c8 0 15 7 15 15v93c0 9-7 15-15 15z m0 675h-93c-9 0-15-7-15-15 2-42-34-85-84-85-11 0-21 2-31 6-7 3-16-1-19-8-3-8 1-17 8-20 14-5 28-8 42-8 58 0 106 44 113 101h64v-129c0-8 7-15 15-15 8 0 15 7 15 15v143c0 9-7 15-15 15z m0-202c-8 0-15-7-15-15v-167c-46 0-32 0-78 0-8 0-15-6-15-15 0-19-7-39-22-55-51-56-145-21-146 55 0 9-7 15-15 15h0c-21 0-48 0-78 0 0 17 0 43 0 78v1c0 8-7 14-15 14-72 0-111 86-63 140 5 6 5 15-1 21-7 5-16 5-21-1-60-68-20-177 70-189 0-17 0-49 0-64-134 0 9 0-78 0-9 0-15-6-15-15-1-62-66-102-122-74-27 14-46 42-46 74 0 9-7 15-15 15-10 0 14 0-78 0v79c0 8-7 14-15 14-65 1-104 73-71 128 4 7 2 16-5 20-7 5-16 2-20-5-43-69 1-160 81-171 0-35 0-65 0-128 0-9 7-15 15-15 8 0 15 6 15 15v33h64c7-49 46-90 97-97 63-9 120 36 128 97h65c0-32 0-50 0-78 0-8 7-15 15-15 46 0 84-37 84-84 0-46-38-84-84-84-8 0-15-6-15-15 0-29 0-50 0-78h-65c-8 0-15-7-15-15s7-15 15-15c20 0 140 0 159 0 6-67 70-115 137-101 8 2 13 10 11 18-2 8-9 13-17 12-54-12-104 30-102 85 0 4-1 8-4 11-8 8-12 3-89 5 0 10 0 39 0 65 66 8 110 71 96 136-10 45-47 82-96 89 0 19 0 45 0 64 36 0 19 0 64 0 11-76 94-120 164-85 34 16 56 49 62 85h64v-64c-85-13-126-113-73-182 5-7 14-8 21-3 6 5 7 14 2 21-42 54-3 134 65 135 8 0 15 7 15 15 0 27 0 249 0 275 0 8-7 15-15 15z m-611 281c-4 8-13 10-20 6-32-17-53-49-58-85h-79c-8 0-15-6-15-14v-80c-11-2-21-5-31-9-7-3-11-12-7-20 3-7 12-10 19-7 11 5 22 7 34 7 8 1 15 7 15 15v79h78c8 0 15 6 15 15 0 0-2 48 43 73 7 4 10 13 6 20z m349-142c-10 15-15 34-14 48 0 8-6 15-15 15-180 0-100 0-172 0-7 53-50 94-102 99-9 1-16-5-17-13 0-9 6-16 14-17 42-4 76-39 76-83 0-9 6-15 15-15h78v-65c-10-1-22-5-30-8-8-4-11-12-8-20 3-8 12-11 20-8 10 5 21 7 33 7 8 0 15 7 15 15 0 28 0 48 0 79h64c2-18 9-36 19-51 4-6 14-8 20-4 7 5 9 14 4 21z m-212-669c-18 39-59 65-102 65-58 0-107-44-113-101h-7c-8 0-15-7-15-15s7-15 15-15h21c8 0 15 7 15 16-2 43 35 85 84 85 32 0 62-19 76-48 3-7 12-11 19-7 8 4 11 13 7 20z m-279-36v261c0 8-7 15-15 15-8 0-15-7-15-15v-276c0-8 7-15 15-15h13c8 0 15 7 15 15 0 8-6 14-13 15z" horiz-adv-x="1000" />

<glyph glyph-name="recommended" unicode="&#xe814;" d="M766 409c0 31-25 57-57 57h-106c26 29 43 62 46 91 2 18-4 36-15 49-11 12-25 19-41 19 0 0-1 0-1 0-15 0-29-6-40-17-11-11-17-25-17-40-1-3-7-15-21-29-12-11-32-26-62-36-12-4-23-11-32-21-5-5-13-13-22-20-4 3-9 4-15 4h-100c-18 0-32-15-32-32v-268c0-18 14-32 32-32h100c12 0 23 7 28 17h256c27 0 49 22 49 49 0 9-2 17-7 25 14 8 24 24 24 42 0 9-3 17-7 24 14 9 24 25 24 42 0 11-4 20-9 28 15 10 25 28 25 48z m-57-27h-8c-9 0-16-7-16-15 0-9 7-16 16-16 9 0 17-8 17-18s-8-17-17-17h-17c-9 0-16-7-16-16 0-9 7-16 16-16 10 0 18-8 18-17 0-10-8-18-18-18h-17c-8 0-16-7-16-16 0-9 7-16 16-16 10 0 18-7 18-17 0-10-8-18-18-18h-252v151c0 9-7 16-15 16s-16-7-16-16v-167c0 0 0-1-1-1h-100c-1 0-1 1-1 1v268c0 0 0 1 1 1h100c1 0 1-1 1-1v-34c0-8 7-16 16-16s15 8 15 16v34c0 0 0 1 0 2 12 9 22 18 28 25 5 6 12 10 18 12 37 12 62 31 76 45 18 18 29 36 29 50 0 7 3 13 8 18 5 5 11 7 18 7 9 0 15-4 18-8 6-6 9-16 8-25-4-31-28-69-64-98-5-4-7-11-4-17 2-6 8-10 14-10h145c14 0 26-12 26-26s-12-27-26-27z m-376-150c-9 0-16-7-16-15 0-9 7-16 16-16 9 0 16 7 16 16 0 8-7 15-16 15z m639 118l27 71c2 5 1 11-2 16l-48 59 4 76c0 5-3 11-7 14l-64 42-20 73c-2 5-6 9-11 11l-73 20-42 64c-3 4-9 7-14 7l-76-4-59 48c-5 3-11 4-16 2l-71-27-71 27c-5 2-11 1-15-2l-60-48-76 4c-5 0-11-3-14-7l-41-64-74-20c-5-2-9-6-11-11l-20-73-63-42c-5-3-8-9-8-14l4-76-48-59c-3-5-4-11-2-16l27-71-27-71c-2-5-1-11 2-15l48-60-4-76c0-5 3-11 8-14l63-41 20-74c2-5 6-9 11-11l74-20 41-64c3-4 9-7 14-7l76 4 60-48c4-3 10-4 15-2l71 27 71-27c2-1 4-1 6-1 3 0 7 1 10 3l59 48 76-4c5 0 11 3 14 7l42 64 73 20c5 2 9 6 11 11l20 74 64 41c4 3 7 9 7 14l-4 76 48 60c3 4 4 10 2 15l-27 71z m-31-5l26-69-46-57c-2-3-4-7-4-10l4-73-61-41c-3-2-6-5-7-8l-19-71-70-19c-4-1-7-4-9-7l-41-61-73 4c-3 0-7-2-10-4l-57-46-68 26c-2 1-4 1-6 1-2 0-4 0-5-1l-69-26-57 46c-3 2-7 4-10 4l-73-4-41 61c-2 3-5 6-8 7l-71 19-19 71c-1 3-4 6-7 8l-61 41 4 73c0 3-1 7-4 10l-45 57 25 69c2 3 2 7 0 11l-25 68 45 57c3 3 4 7 4 10l-4 73 61 41c3 2 6 5 7 9l19 70 71 19c3 1 6 4 8 7l41 61 73-4c3 0 7 2 10 4l57 46 69-26c3-2 7-2 11 0l68 26 57-46c3-2 7-4 10-4l73 4 41-61c2-3 5-6 9-7l70-19 19-70c1-4 4-7 7-9l61-41-4-73c0-3 2-7 4-10l46-57-26-68c-2-4-2-8 0-11z m-147 275c-4 5-8 9-12 13-4 4-8 8-12 12-7 6-17 5-22-1-6-6-6-16 1-22 3-4 7-7 11-11 4-4 8-8 11-12 3-3 7-5 12-5 4 0 7 2 10 4 7 6 7 16 1 22z m-80 68c-75 48-166 69-256 60-91-10-176-50-241-115-71-71-113-166-117-266-4-100 29-198 93-274 3-3 8-5 12-5 4 0 7 1 10 3 7 6 8 16 2 22-59 71-89 160-86 252 4 93 42 180 108 246 60 59 139 97 222 106 83 8 167-11 236-56 8-4 17-2 22 5 5 7 2 17-5 22z m123-123c-5 7-14 9-22 5-7-5-9-15-4-22 44-70 64-153 55-236-9-84-46-163-106-222-66-66-153-104-245-108-93-4-182 27-252 86-7 6-17 5-22-2-6-7-5-16 1-22 73-61 163-94 257-94 6 0 11 0 17 1 100 4 195 45 266 117 65 64 106 150 115 241 9 89-12 180-60 256z" horiz-adv-x="1000" />

<glyph glyph-name="shipped" unicode="&#xe815;" d="M930 398l-26 104c7 1 13 8 13 15v17c0 36-30 66-66 66h-118v34c0 18-15 32-33 32h-601c-18 0-32-14-32-32v-284c0-9 7-16 16-16 8 0 15 7 15 16v284c0 1 1 1 1 1h601c1 0 2 0 2-1v-284c0-9 7-16 15-16 9 0 16 7 16 16v18h185c0 0 0 0 0 0 0 0 0 0 0 0 22 0 42-15 48-36h-48c-9 0-16-7-16-15v-34c0-27 22-49 49-49h18v-69h-41c-14 39-51 67-94 67s-80-28-94-67h-7v118c0 9-7 16-16 16-8 0-15-7-15-16v-118h-325c-14 39-51 67-94 67s-80-28-94-67h-90c0 0-1 1-1 1v35h68c9 0 16 7 16 15s-7 16-16 16h-150c-9 0-16-7-16-16s7-15 16-15h51v-35c0-18 14-32 32-32h85c0 0 0-1 0-1 0-55 44-99 99-99s99 44 99 99c0 0 0 1 0 1h353c0 0 0-1 0-1 0-55 44-99 99-99 55 0 99 44 99 99 0 0 0 1 0 1h51c9 0 16 7 16 16v167c0 41-30 75-70 81z m-197 170h118c19 0 34-15 34-34v-1h-152v35z m0-169v102h139l26-102h-165z m-450-334c-37 0-68 31-68 68s31 68 68 68c37 0 68-31 68-68s-31-68-68-68z m551 0c-37 0-68 31-68 68s31 68 68 68c37 0 68-31 68-68s-31-68-68-68z m135 200h-18c-10 0-18 8-18 18v18h36v-36z m-686-100c-18 0-32-14-32-32 0-18 14-32 32-32 18 0 32 14 32 32 0 18-14 32-32 32z m551 0c-18 0-32-14-32-32 0-18 14-32 32-32 18 0 32 14 32 32 0 18-14 32-32 32z m-184 67h-233c-9 0-16-7-16-16s7-15 16-15h233c9 0 16 7 16 15s-7 16-16 16z m-400 67h-201c-9 0-16-7-16-16s7-15 16-15h201c8 0 15 7 15 15s-7 16-15 16z m295 212c-7 7-17 7-23 0l-139-139-72 73c-6 6-16 6-22 0-7-6-7-16 0-23l83-83c3-3 7-5 11-5s8 2 11 5l151 150c6 6 6 16 0 22z" horiz-adv-x="1000" />

<glyph glyph-name="sketchbook" unicode="&#xe816;" d="M959 668c-7 5-16 3-21-4-4-6-3-16 4-20 18-13 28-33 28-55v-550c0-37-30-67-67-67h-312c-8 0-15-7-15-15 0-8 7-15 15-15h312c54 0 97 44 97 97v550c0 31-15 61-41 79z m-427-696h-435c-37 0-67 30-67 67v427c0 8-7 14-15 14s-15-6-15-14v-427c0-53 44-97 97-97h435c8 0 15 7 15 15 0 8-7 15-15 15z m362 714h-87v29c0 24-19 43-43 43-23 0-42-19-42-43v-29h-91v29c0 24-19 43-43 43-23 0-42-19-42-43v-29h-91v29c0 24-20 43-43 43s-43-19-43-43v-29h-91v29c0 24-19 43-42 43-24 0-43-19-43-43v-29h-96c-53 0-97-44-97-97v-64c0-8 7-15 15-15s15 7 15 15v64c0 37 30 67 67 67h96v-26c0-24 19-43 43-43 23 0 42 19 42 43v26h91v-26c0-24 19-43 43-43s43 19 43 43v26h91v-26c0-24 19-43 42-43 24 0 43 19 43 43v26h91v-26c0-24 19-43 42-43 24 0 43 19 43 43v26h87c8 0 15 7 15 15s-7 15-15 15z m-645-56c0-7-6-13-13-13-7 0-13 6-13 13 0 28 0 52 0 85 0 7 6 13 13 13 7 0 13-6 13-13 0-33 0-56 0-85z m176 0c0-7-6-13-13-13s-13 6-13 13c0 28 0 52 0 85 0 7 6 13 13 13s13-6 13-13c0-33 0-56 0-85z m176 0c0-7-6-13-13-13-7 0-13 6-13 13 0 28 0 52 0 85 0 7 6 13 13 13 7 0 13-6 13-13 0-33 0-56 0-85z m176 0c0-7-6-13-13-13-7 0-12 6-12 13v26 30 29c0 7 5 13 12 13 7 0 13-6 13-13 0-33 0-56 0-85z m-286-494h-49c-45 0-81 36-81 81 0 62-50 112-112 112h-52c-54 0-98 44-98 98v95c0 8-6 14-15 14-8 0-14-6-14-14v-95c0-71 57-128 127-128h52c45 0 82-37 82-82 0-61 50-111 111-111h49c9 0 15 6 15 15s-6 15-15 15z m423 355c-7 5-16 4-21-2-5-7-4-16 2-21 13-10 21-26 21-44 0-9-2-19-7-27l-76 76c6 3 12 5 18 6 8 1 14 9 12 17-1 8-9 14-17 12-41-7-55-37-91-68 0-1-165-165-167-168-15-10-21-50-55-157-4-11 7-22 18-19l130 40c25 8 35 24 43 31 6 6 6 15 0 21-6 6-15 6-21 0l-11-11-29 29 152 152 29-29-99-99c-10-10-3-26 10-26 12 0 8 4 120 114 0 0 0 0 0 0 1 0 1 1 1 1l45 45c0 0 0 0 0 0 0 0 0 0 0 0 36 36 33 96-7 127z m-345-358l7 23c7-3 13-9 16-16l-23-7z m96 29l-44-13c-6 16-19 29-36 36l14 43 66-66z m-23 65l-29 29 152 151 29-28-152-152z m223 123l-79 78 25 25 79-79-25-24z" horiz-adv-x="1000" />

<glyph glyph-name="translation" unicode="&#xe819;" d="M845 406h-151c-1 73-11 143-29 206h99c8 0 15 7 15 15s-7 14-15 14h-107c-16 48-36 89-60 123-5 6-14 8-21 3-6-4-8-14-3-20 21-29 38-65 53-106h-152v136c0 8-7 14-15 14s-15-6-15-14v-136h-152c15 41 32 77 53 106 5 6 3 16-3 20-7 5-16 3-21-3-24-34-44-75-59-123h-108c-8 0-15-6-15-14s7-15 15-15h99c-18-63-28-133-29-206h-151c-8 0-14-7-14-15s6-15 14-15h151c1-73 11-143 29-206h-99c-8 0-15-7-15-15s7-14 15-14h108c15-48 35-89 59-123 3-4 8-6 12-6 3 0 6 1 9 3 6 5 8 14 3 20-21 29-38 65-53 106h152v-136c0-8 7-14 15-14s15 6 15 14v136h152c-15-41-32-77-53-106-5-6-3-15 3-20 3-2 6-3 9-3 4 0 9 2 12 6 24 34 44 75 60 123h107c8 0 15 6 15 14s-7 15-15 15h-99c18 63 28 133 29 206h151c8 0 14 7 14 15s-6 15-14 15z m-210 206c18-62 29-133 30-206h-191v206h161z m-352 0h161v-206h-191c1 73 12 144 30 206z m0-442c-18 62-29 133-30 206h191v-206h-161z m352 0h-161v206h191c-1-73-12-144-30-206z m149 546c-87 86-202 134-325 134s-238-48-325-134-134-202-134-325c0-90 26-177 76-253l-56-168c-2-5-1-11 3-15 4-4 10-5 15-3l168 56c75-50 163-76 253-76 123 0 238 48 325 135s134 201 134 324c0 123-48 238-134 325z m-325-755c-87 0-171 26-242 75-3 2-5 3-8 3-2 0-3-1-5-1l-147-49 49 147c1 4 1 9-2 13-49 71-75 155-75 242 0 237 193 430 430 430s430-193 430-430c0-237-193-430-430-430z" horiz-adv-x="1000" />

<glyph glyph-name="verify" unicode="&#xe81a;" d="M67 199c16-13 29-30 28-41-1-7-2-13-2-20 0-103 81-186 181-186 12 0 24 2 35 4 20 4 43-4 57-19 33-37 80-59 132-59 55 0 104 25 137 65 13 16 35 23 55 17 16-5 33-8 51-8 99 0 180 83 180 186 0 11-1 22-3 33-4 18 5 41 20 55 35 34 57 82 57 136 0 58-26 110-67 144-15 13-28 29-27 41 1 6 1 13 1 20 0 103-81 185-180 185-12 0-24-1-36-3-20-4-43 4-56 19-33 36-80 59-132 59-52 0-99-23-132-59-14-15-37-23-57-19-11 2-23 3-35 3-100 0-181-83-181-185 0-10 1-19 3-29 2-16-9-35-25-48-43-34-71-87-71-147 0-58 26-110 67-144z m190 137c4 7 14 8 23-1l94-66c5-3 10-5 15-5 10 0 17 7 25 14l301 301c18 21 37 28 49 20 5-4 9-9 10-15 1-8-2-16-8-23l-361-439c-6-7-12-10-19-10-8 0-16 5-21 13l-106 192c-4 7-5 14-2 19z" horiz-adv-x="1000" />

<glyph glyph-name="viber" unicode="&#xe81b;" d="M500 770c12-8 22-10 52-12 88-5 143-25 205-70 76-55 125-133 141-230 5-25 7-46 9-78 1-23 1-32 6-40 9-13 22-22 37-23 2 0 3 0 5 0 13 0 27 6 33 18 12 13 12 25 10 52-3 81-20 156-53 220-23 45-45 75-85 113-42 40-73 63-123 87-52 25-89 33-144 40-10 1-30 3-45 3-26 0-38 0-50-12-10-8-15-21-15-35s7-25 17-33z m20 43c2 2 3 4 15 4 3 0 7 0 12 0 13 0 33-2 43-4 52-6 85-13 133-36 47-24 75-44 115-82 37-37 57-63 79-105 30-60 46-128 50-207 0-25 0-26-4-28-1-3-6-3-10-3s-8 1-10 5c-1 1-1 5-3 25-2 33-3 56-8 83-20 107-72 192-155 252-67 48-129 70-224 75-28 1-30 3-33 5-2 1-3 5-3 8s1 7 3 8z m253-401c0-24 2-45 25-57 7-3 15-5 24-5 6 0 15 2 20 5 8 3 18 15 21 23 5 12 4 55 2 67-7 53-25 103-53 145-54 77-132 122-234 137-35 5-60 6-75-17-11-17-10-40 4-55 11-13 26-15 41-17 40-3 85-16 115-33 35-20 64-50 84-85 16-32 26-70 26-108z m-91 221c-35 20-85 34-134 37-13 0-16 3-18 5-3 5-3 10 0 15 3 3 5 7 43 2 94-14 164-54 210-122 27-37 44-82 49-130 3-17 1-45 1-50-1-2-5-5-6-7-2 0-10 0-12 2-3 2-7 3-7 27 0 43-11 90-31 125-22 40-55 73-95 96z m0-80c-22 22-49 35-84 42-8 2-21 3-30 3-13 0-20 0-30-5-11-6-20-18-23-31-3-14 2-29 10-39 12-11 22-13 43-16 37-4 57-17 69-40 6-12 10-25 11-45 2-17 5-29 19-39 8-5 18-8 28-8 12 0 22 3 27 8 16 15 18 35 13 64-8 46-23 80-53 106z m20-143c-4-3-12-3-17 0-2 2-3 2-5 15-2 22-5 38-13 55-17 35-47 55-94 60-18 3-20 3-21 7-2 3-2 6-2 10 2 3 3 6 7 8 1 2 1 2 5 2 1 0 5 0 6 0 9-2 20-2 25-4 29-6 50-16 69-33 23-22 36-48 41-87 5-26 2-30-1-33z m280-318c-12 13-84 70-115 91-25 17-65 40-84 50-26 14-55 15-81 7-5-2-10-3-14-5-13-7-23-18-43-42-20-25-25-30-25-30-2-1-5-3-8-5h-2c-15-8-40-1-82 19-35 16-66 38-101 70-30 26-60 61-77 88-23 38-38 82-38 102 0 8 3 20 6 25l2 1c0 0 2 2 3 4 7 5 15 11 24 18 38 30 50 42 56 65 7 22 2 47-16 82-27 51-114 161-149 185-5 5-15 10-21 11-15 7-35 9-49 5-18-3-38-15-81-48-25-17-62-52-72-68-23-40-17-74 3-132 20-55 47-110 79-165l1-3c7-10 14-22 20-32l2-3c7-10 13-22 20-32l12-17c5-6 8-11 13-18 8-12 18-23 27-35 96-125 208-227 340-308l5-4c18-11 38-23 60-35l8-5c22-11 42-21 63-31l7-4c25-11 47-21 68-30 27-10 39-13 57-13 3 0 7 0 10 0 12 0 23 2 33 5 15 5 29 12 45 23 2 2 5 5 9 7 3 3 8 7 11 10 19 15 40 38 57 62 8 11 20 30 27 45 6 13 8 28 8 41 0 19-7 35-18 49z m-20-79c-4-10-12-23-24-38-15-22-35-42-51-57-4-3-7-6-10-8-4-2-5-3-9-5-13-10-25-15-35-18-8-2-16-4-25-4-18 0-25 0-51 10-20 10-42 19-67 30l-7 4c-20 10-41 20-61 31l-9 5c-20 10-40 22-58 34l-5 3c-130 80-238 178-332 300-8 12-16 23-25 35-5 7-10 12-13 18l-10 15c-8 10-15 20-22 32l-1 2c-7 10-12 21-19 31l-1 4c-32 51-57 106-77 160-23 60-20 80-7 103 7 10 39 42 64 58 36 29 56 40 68 42 7 2 22 0 30-3 3-2 10-5 15-9 25-16 108-118 137-171 13-25 18-45 15-57-4-12-7-18-45-48-10-7-19-15-25-20-2-2-4-4-5-5l-2-2c-2-2-3-2-3-3l-2-2c-8-10-13-30-13-45 1-30 18-78 43-118 18-29 52-67 83-95 37-34 70-57 109-75 50-24 81-30 108-20h2l3 1c3 2 8 4 10 5 2 2 3 2 5 4 2 1 3 3 30 35 20 23 27 30 33 33 2 2 5 2 9 3 18 7 36 5 56-5 17-10 55-31 79-48 35-23 101-77 108-85 8-8 12-17 12-28 0-9-2-19-5-29z" horiz-adv-x="1000" />

<glyph glyph-name="vk-social-network-logo" unicode="&#xe81c;" d="M1065 68c-1 3-2 5-3 7-19 34-54 75-107 123l-1 2 0 0-1 1h-1c-23 22-38 38-45 45-11 15-14 30-8 46 5 11 22 35 51 73 15 19 27 35 36 47 64 86 92 140 84 164l-4 6c-2 3-8 6-17 9-9 2-21 3-36 1l-160-1c-3 1-7 1-11 0-5-1-8-2-8-2l-3-1-2-2c-2-1-4-3-6-6-2-3-4-6-5-10-18-45-38-86-60-125-14-23-27-43-38-60-12-17-21-29-29-37-8-8-15-15-21-20-7-4-11-7-15-6-3 1-6 2-9 2-5 4-10 8-13 14-3 6-5 13-6 22-1 9-2 16-2 22 0 7 0 16 0 27 1 12 1 20 1 24 0 14 0 29 1 46 0 16 1 29 1 39 0 10 0 20 0 31s0 19-1 25c-2 6-4 12-6 18-3 6-7 10-12 13-5 3-11 6-18 8-20 4-45 7-76 7-69 1-113-4-133-13-8-4-15-10-21-17-7-8-8-13-3-13 22-4 38-12 47-24l4-7c2-5 5-14 8-26 2-12 4-26 5-41 1-27 1-50 0-69-2-20-4-35-6-45-1-11-4-20-7-27-4-6-6-10-7-12-1-1-2-2-3-3-5-2-10-2-15-2-5 0-11 2-19 7-7 6-15 13-23 22-8 9-17 22-27 38-10 16-20 36-31 58l-9 16c-6 11-13 26-23 46-10 20-18 39-26 57-3 8-7 14-13 18l-3 2c-2 1-5 3-9 5-4 1-8 3-12 3l-153-1c-16 0-26-3-32-10l-2-4c-1-2-2-5-2-9 0-4 1-9 3-15 23-52 47-103 73-151 26-49 49-88 68-118 20-30 40-58 60-84 20-27 33-44 39-51 7-8 12-13 16-17l14-13c9-9 22-20 39-32 17-13 36-25 57-37 21-12 46-22 74-30 28-7 55-10 81-9h64c13 1 23 5 30 12l2 3c2 2 3 6 4 11 2 4 2 9 2 15 0 16 1 30 4 43 3 13 6 23 9 29 4 7 8 12 12 17 5 4 8 7 10 8 2 1 3 1 4 2 9 3 20 0 32-9 12-9 23-20 34-32 10-13 23-28 38-44 15-16 28-27 39-35l11-7c8-4 17-9 29-12 12-4 22-5 31-3l143 2c14 0 25 3 33 7 8 5 13 10 14 15 2 6 2 12 0 19-1 7-2 12-4 15z" horiz-adv-x="1000" />

<glyph glyph-name="placeholder" unicode="&#xe81d;" d="M774 736c-71 70-165 110-266 110-100 0-194-40-265-110-131-131-147-378-35-528l300-434 300 434c113 150 97 397-34 528z m3-505l-269-388-268 388c-102 136-88 359 31 477 63 63 148 98 237 98 90 0 174-35 238-98 118-118 133-341 31-477z m-265 380c-76 0-137-62-137-137 0-76 61-137 137-137 75 0 137 61 137 137 0 75-62 137-137 137z m0-235c-54 0-98 44-98 98 0 54 44 98 98 98 54 0 98-44 98-98 0-54-44-98-98-98z" horiz-adv-x="1000" />

<glyph glyph-name="artistic-brush" unicode="&#xe81e;" d="M1070 795c-29 2-509-359-647-510-20-23-25-39-52-81 17-12 50-40 73-88 46 26 68 30 92 51 159 134 548 613 535 627-1 0-1 1-1 1z m-764-626c-62 1-122-44-163-143-46-109-127-153-143-150 85-31 344-109 408 190-27 71-83 101-83 101-6 1-13 1-19 2z" horiz-adv-x="1000" />

<glyph glyph-name="star" unicode="&#xe81f;" d="M561 813l136-323 349-29c24-3 34-33 16-49l-265-229 79-341c6-24-20-42-41-30l-299 181-300-181c-21-12-47 6-41 30l79 341-264 229c-19 16-9 46 15 49l349 30 136 322c10 22 41 22 51 0z" horiz-adv-x="1000" />

<glyph glyph-name="time" unicode="&#xe820;" d="M536 850c-296 0-536-240-536-535 0-296 240-536 536-536 295 0 535 240 535 536 0 295-240 535-535 535z m0-1035c-276 0-500 224-500 500 0 275 224 499 500 499 275 0 499-224 499-499 0-276-224-500-499-500z m0 928c-10 0-18-8-18-18v-410h-268c-10 0-18-8-18-18 0-10 8-18 18-18h286c9 0 17 8 17 18v428c0 10-8 18-17 18z" horiz-adv-x="1000" />

<glyph glyph-name="facebook" unicode="&#xf09a;" d="M535 843v-147h-87q-48 0-65-20t-17-60v-106h164l-22-165h-142v-424h-171v424h-142v165h142v122q0 104 58 161t155 57q82 0 127-7z" horiz-adv-x="571.4" />

<glyph glyph-name="instagram" unicode="&#xf16d;" d="M571 350q0 59-41 101t-101 42-101-42-42-101 42-101 101-42 101 42 41 101z m77 0q0-91-64-156t-155-64-156 64-64 156 64 156 156 64 155-64 64-156z m61 229q0-21-15-36t-37-15-36 15-15 36 15 36 36 15 37-15 15-36z m-280 123q-4 0-43 0t-59 0-54-2-57-5-40-11q-28-11-49-32t-33-49q-6-16-10-40t-6-58-1-53 0-59 0-43 0-43 0-59 1-53 6-58 10-40q12-28 33-49t49-32q16-6 40-11t57-5 54-2 59 0 43 0 42 0 59 0 54 2 58 5 39 11q28 11 50 32t32 49q6 16 10 40t6 58 1 53 0 59 0 43 0 43 0 59-1 53-6 58-10 40q-11 28-32 49t-50 32q-16 6-39 11t-58 5-54 2-59 0-42 0z m428-352q0-128-3-177-5-116-69-180t-179-69q-50-3-177-3t-177 3q-116 6-180 69t-69 180q-3 49-3 177t3 177q5 116 69 180t180 69q49 3 177 3t177-3q116-6 179-69t69-180q3-49 3-177z" horiz-adv-x="857.1" />

<glyph glyph-name="skype" unicode="&#xf17e;" d="M655 257q0 28-11 51t-27 38-41 27-46 19-49 13l-58 14q-17 4-25 6t-19 6-17 9-9 12-4 16q0 43 80 43 24 0 43-6t30-16 21-19 23-16 27-7q26 0 42 18t16 43q0 31-32 55t-79 38-101 13q-38 0-74-9t-67-26-49-48-19-72q0-34 10-60t32-42 44-27 58-18l81-20q51-12 63-20 18-11 18-34 0-21-23-36t-58-14q-29 0-51 9t-37 22-25 25-26 21-30 9q-28 0-42-17t-14-41q0-52 68-88t162-37q41 0 78 10t69 30 49 52 19 74z m202-121q0-89-63-152t-151-63q-73 0-131 45-43-9-83-9-80 0-153 31t-126 84-83 125-31 153q0 41 9 84-45 58-45 130 0 89 63 152t151 63q73 0 131-45 43 9 84 9 79 0 152-31t126-84 84-125 30-153q0-41-8-84 44-58 44-130z" horiz-adv-x="857.1" />

<glyph glyph-name="whatsapp-1" unicode="&#xf232;" d="M550 307q7 0 54-25t50-30q1-2 1-8 0-18-9-42-9-22-40-37t-57-15q-32 0-106 35-55 25-95 66t-82 103q-41 60-40 108v5q2 50 41 88 14 12 29 12 4 0 10-1t11-1q11 0 15-3t8-16q5-11 19-49t14-41q0-12-19-33t-20-26q0-3 3-8 19-41 57-76 31-30 84-57 7-4 13-4 8 0 30 27t29 28z m-114-296q71 0 136 28t112 74 75 112 28 136-28 136-75 112-112 75-136 28-135-28-112-75-75-112-28-136q0-113 67-205l-44-130 135 43q88-58 192-58z m0 771q86 0 164-34t134-89 90-135 33-163-33-163-90-134-134-90-164-34q-108 0-203 53l-233-75 76 226q-60 99-60 217 0 86 33 163t90 135 134 89 163 34z" horiz-adv-x="857.1" />
</font>
</defs>
</svg>
